<svg width="22" height="22" viewBox="0 0 22 22" fill="none" xmlns="http://www.w3.org/2000/svg">
<path d="M16.819 3.92086C16.1093 3.92086 15.5327 4.49747 15.5327 5.20714C15.5327 5.91681 16.1093 6.49342 16.819 6.49342C17.5287 6.49342 18.1053 5.91681 18.1053 5.20714C18.1053 4.49747 17.5287 3.92086 16.819 3.92086Z" fill="white"/>
<path d="M11.0887 5.57981C8.09923 5.57981 5.66861 8.01043 5.66861 10.9999C5.66861 13.9894 8.09923 16.42 11.0887 16.42C14.0782 16.42 16.5088 13.9894 16.5088 10.9999C16.5088 8.01043 14.0782 5.57981 11.0887 5.57981ZM11.0887 14.4684C9.1726 14.4684 7.6202 12.9072 7.6202 10.9999C7.6202 9.09267 9.18148 7.5314 11.0887 7.5314C12.996 7.5314 14.5572 9.09267 14.5572 10.9999C14.5572 12.9072 12.996 14.4684 11.0887 14.4684Z" fill="white"/>
<path d="M15.391 21.9998H6.60881C2.96287 21.9998 0 19.0369 0 15.391V6.60881C0 2.96288 2.96287 0 6.60881 0H15.391C19.0369 0 21.9998 2.96288 21.9998 6.60881V15.391C21.9998 19.0369 19.0369 21.9998 15.391 21.9998ZM6.59994 2.06692C4.09835 2.06692 2.05805 4.10722 2.05805 6.60881V15.391C2.05805 17.8926 4.09835 19.9329 6.59994 19.9329H15.3821C17.8837 19.9329 19.924 17.8926 19.924 15.391V6.60881C19.924 4.10722 17.8837 2.06692 15.3821 2.06692H6.59994Z" fill="white"/>
</svg>
