<svg width="66" height="74" viewBox="0 0 66 74" fill="none" xmlns="http://www.w3.org/2000/svg">
<path d="M35.7274 74.0001C34.2635 74.0001 32.9562 73.0159 32.5449 71.6108L30.6012 64.9226L29.0589 71.4492C28.7064 72.9523 27.3795 74.0001 25.8373 74.0001H25.6267C24.6671 74.0001 23.7564 73.5839 23.1248 72.8593C22.4932 72.1346 22.2092 71.175 22.3414 70.2251L24.2509 56.6531V50.5035L17.2201 47.4435C17.1809 47.4239 17.1417 47.4043 17.1074 47.3798C16.4905 46.9832 16.089 46.3369 16.0009 45.6074C15.9128 44.8779 16.1527 44.1582 16.6619 43.6245C17.0585 43.2083 17.5971 42.939 18.1699 42.8754L30.4543 41.7884C30.4543 41.7884 30.4983 41.7884 30.5228 41.7884C30.5522 41.7884 30.5816 41.7884 30.611 41.7884L44.1536 43.1251C44.6335 43.1838 45.0693 43.3748 45.4316 43.6881C45.9897 44.1777 46.2835 44.9171 46.2149 45.6564C46.1464 46.3957 45.7253 47.0665 45.0839 47.4484C45.0496 47.4679 45.0105 47.4875 44.9762 47.5022L37.4264 50.5133V56.6531L39.0274 70.2888C39.14 71.2289 38.8414 72.1689 38.2147 72.8788C37.588 73.5839 36.6822 73.9903 35.7372 73.9903L35.7274 74.0001ZM30.5228 60.9666C30.8802 60.9666 31.1936 61.2065 31.2965 61.5443L34.0921 71.1652C34.3027 71.8898 34.9734 72.3941 35.7274 72.3941C36.217 72.3941 36.6724 72.1934 37.0004 71.8262C37.3333 71.4492 37.4802 70.9791 37.4215 70.4895L35.8156 56.8049C35.8156 56.7755 35.8107 56.7412 35.8107 56.7118V49.9796C35.8107 49.6467 36.0065 49.3578 36.315 49.2354L43.9284 46.1998L43.7179 44.7065L30.5179 43.4041L17.8467 44.5205L17.3669 45.7543L25.377 49.2452C25.6708 49.3725 25.8617 49.6614 25.8617 49.9796V56.7118C25.8617 56.751 25.8617 56.7902 25.852 56.8244L23.9376 70.4504C23.8445 71.1211 24.1481 71.5863 24.339 71.8066C24.6719 72.1836 25.1273 72.3941 25.6267 72.3941H25.8373C26.6304 72.3941 27.3159 71.8556 27.4971 71.082L29.7444 61.5835C29.8276 61.231 30.1409 60.9764 30.5081 60.9666H30.5277H30.5228Z" fill="#B8943E"/>
<path d="M30.8507 39.2571C28.2557 39.2571 26.1406 37.142 26.1406 34.547C26.1406 31.9521 28.2557 29.837 30.8507 29.837C33.4456 29.837 35.5608 31.9472 35.5608 34.547C35.5608 37.1469 33.4505 39.2571 30.8507 39.2571ZM30.8507 31.4478C29.1419 31.4478 27.7466 32.8383 27.7466 34.5519C27.7466 36.2656 29.1371 37.6561 30.8507 37.6561C32.5643 37.6561 33.9548 36.2656 33.9548 34.5519C33.9548 32.8383 32.5643 31.4478 30.8507 31.4478Z" fill="#B8943E"/>
<path d="M4.34286 72.0514C3.90221 72.0514 3.53989 71.6891 3.53989 71.2484V44.731L3.00623 44.5547C1.20935 43.9721 0 42.3123 0 40.4224V19.9468C0 16.8378 2.53131 14.3065 5.64035 14.3065H19.3887C22.4977 14.3065 25.029 16.8378 25.029 19.9468V27.2175C25.029 27.6582 24.6667 28.0205 24.226 28.0205C23.7854 28.0205 23.4231 27.6582 23.4231 27.2175V19.9468C23.4231 17.7239 21.6115 15.9124 19.3887 15.9124H5.64035C3.41751 15.9124 1.60594 17.7239 1.60594 19.9468V40.4224C1.60594 41.9304 2.83486 43.1593 4.34286 43.1593C4.78352 43.1593 5.14584 43.5217 5.14584 43.9623V70.4455H11.7116V50.9295C11.7116 50.4888 12.0738 50.1265 12.5145 50.1265C12.9551 50.1265 13.3174 50.4888 13.3174 50.9295V70.4455H17.9737C18.4143 70.4455 18.7766 70.8078 18.7766 71.2484C18.7766 71.6891 18.4143 72.0514 17.9737 72.0514H4.34286Z" fill="#B8943E"/>
<path d="M44.1634 72.0514C43.7227 72.0514 43.3604 71.6891 43.3604 71.2484C43.3604 70.8078 43.7227 70.4455 44.1634 70.4455H47.6935V60.4623C47.6935 60.0216 48.0558 59.6593 48.4965 59.6593C48.9372 59.6593 49.2994 60.0216 49.2994 60.4623V70.4455H55.2972V57.2161C55.2972 56.7755 55.6595 56.4132 56.1001 56.4132H61.1432C62.0441 56.4132 62.8568 55.9921 63.3758 55.2577C63.8948 54.5233 64.0221 53.6175 63.7235 52.7655L59.1211 39.7076C58.9791 39.2963 59.1896 38.841 59.596 38.6892L62.0979 37.754C63.3954 37.2693 64.1249 35.8886 63.7969 34.5422L59.9975 18.992C59.552 17.1805 57.9411 15.9173 56.0806 15.9173H41.8328C39.9723 15.9173 38.3566 17.1805 37.9159 18.992L36.2219 25.925C36.1337 26.2873 35.8155 26.537 35.4434 26.537C35.3798 26.537 35.3161 26.5272 35.2524 26.5125C35.0419 26.4586 34.8656 26.3313 34.753 26.1502C34.6404 25.969 34.6111 25.7536 34.66 25.5431L36.3541 18.6101C36.971 16.0789 39.2281 14.3065 41.8328 14.3065H56.0806C58.6853 14.3065 60.9424 16.074 61.5593 18.6053L65.3587 34.1554C65.8826 36.2901 64.7222 38.4835 62.661 39.2571L60.8984 39.9181L65.2363 52.2319C65.7064 53.5587 65.4958 55.0374 64.6831 56.183C63.8703 57.3287 62.5435 58.0191 61.1383 58.0191H56.8982V71.2484C56.8982 71.6891 56.5359 72.0514 56.0952 72.0514H44.1585H44.1634Z" fill="#B8943E"/>
<path d="M12.5149 12.0347C9.20022 12.0347 6.49759 9.33692 6.49759 6.01734C6.49759 2.69777 9.19532 0 12.5149 0C15.8345 0 18.5323 2.69777 18.5323 6.01734C18.5323 9.33692 15.8345 12.0347 12.5149 12.0347ZM12.5149 1.61083C10.0815 1.61083 8.10838 3.58886 8.10838 6.01734C8.10838 8.44582 10.0864 10.4239 12.5149 10.4239C14.9434 10.4239 16.9214 8.44582 16.9214 6.01734C16.9214 3.58886 14.9434 1.61083 12.5149 1.61083Z" fill="#B8943E"/>
<path d="M48.9612 12.0347C45.6465 12.0347 42.9488 9.33692 42.9488 6.01734C42.9488 2.69777 45.6465 0 48.9612 0C52.2759 0 54.9786 2.69777 54.9786 6.01734C54.9786 9.33692 52.2808 12.0347 48.9612 12.0347ZM48.9612 1.61083C46.5327 1.61083 44.5547 3.58886 44.5547 6.01734C44.5547 8.44582 46.5327 10.4239 48.9612 10.4239C51.3897 10.4239 53.3677 8.44582 53.3677 6.01734C53.3677 3.58886 51.3897 1.61083 48.9612 1.61083Z" fill="#B8943E"/>
</svg>
