<svg width="73" height="73" viewBox="0 0 73 73" fill="none" xmlns="http://www.w3.org/2000/svg">
<path d="M21.4381 22.3694C21.2714 22.3694 21.1095 22.3154 20.9819 22.2124C20.8004 22.0702 20.6925 21.8494 20.6925 21.6189V14.5793C20.6925 14.2359 20.9231 13.9416 21.2566 13.8533L28.2961 12.0432C28.355 12.0284 28.4188 12.0186 28.4826 12.0186C28.6493 12.0186 28.8112 12.0726 28.9388 12.1756C29.1203 12.3179 29.2282 12.5386 29.2282 12.7692V19.8087C29.2282 20.1521 28.9976 20.4464 28.6641 20.5347L21.6246 22.3498C21.5657 22.3645 21.5019 22.3743 21.4381 22.3743V22.3694ZM22.1887 15.1582V20.6525L27.7271 19.2249V13.7307L22.1887 15.1582Z" fill="#B8943E"/>
<path d="M50.4584 22.3694C50.3947 22.3694 50.3309 22.3596 50.2671 22.3449L43.2325 20.5347C42.9038 20.4513 42.6684 20.1521 42.6684 19.8087V12.7692C42.6684 12.5386 42.7763 12.3179 42.9578 12.1756C43.0902 12.0726 43.2521 12.0186 43.4189 12.0186C43.4827 12.0186 43.5465 12.0284 43.6053 12.0432L50.6448 13.8533C50.9735 13.9367 51.209 14.2359 51.209 14.5793V21.6189C51.209 21.8494 51.1011 22.0702 50.9195 22.2124C50.7871 22.3154 50.6252 22.3694 50.4584 22.3694ZM44.1646 19.2249L49.7079 20.6525V15.1582L44.1646 13.7307V19.2249Z" fill="#B8943E"/>
<path d="M21.4381 38.9993C21.2714 38.9993 21.1095 38.9453 20.9819 38.8423C20.8004 38.7001 20.6925 38.4793 20.6925 38.2488V31.2092C20.6925 30.8658 20.9231 30.5715 21.2566 30.4832L28.2961 28.6681C28.355 28.6534 28.4188 28.6436 28.4826 28.6436C28.6493 28.6436 28.8112 28.6976 28.9437 28.8006C29.1252 28.9429 29.2331 29.1636 29.2331 29.3942V36.4337C29.2331 36.7771 29.0026 37.0714 28.669 37.1597L21.6295 38.9748C21.5706 38.9895 21.5068 38.9993 21.443 38.9993H21.4381ZM22.1887 31.793V37.2873L27.7271 35.8597V30.3655L22.1887 31.793Z" fill="#B8943E"/>
<path d="M50.4584 38.9993C50.3947 38.9993 50.3309 38.9895 50.2671 38.9748L43.2325 37.1646C42.9038 37.0812 42.6684 36.782 42.6684 36.4386V29.3991C42.6684 29.1685 42.7763 28.9478 42.9578 28.8055C43.0853 28.7025 43.2521 28.6485 43.4189 28.6485C43.4827 28.6485 43.5465 28.6583 43.6053 28.6731L50.6448 30.4832C50.9735 30.5666 51.209 30.8658 51.209 31.2092V38.2488C51.209 38.4793 51.1011 38.7001 50.9195 38.8423C50.7871 38.9453 50.6252 38.9993 50.4633 38.9993H50.4584ZM44.1646 35.8597L49.7079 37.2873V31.793L44.1646 30.3655V35.8597Z" fill="#B8943E"/>
<path d="M21.4381 55.6341C21.2714 55.6341 21.1095 55.5802 20.9819 55.4771C20.8004 55.3349 20.6925 55.1141 20.6925 54.8836V47.844C20.6925 47.5007 20.9231 47.2063 21.2566 47.118L28.2961 45.3029C28.355 45.2882 28.4188 45.2784 28.4826 45.2784C28.6493 45.2784 28.8112 45.3324 28.9437 45.4354C29.1252 45.5777 29.2331 45.7984 29.2331 46.029V53.0685C29.2331 53.4119 29.0026 53.7111 28.6739 53.7945L21.6344 55.6096C21.5755 55.6243 21.5117 55.6341 21.448 55.6341H21.4381ZM22.1887 48.4278V53.9221L27.7271 52.4945V47.0003L22.1887 48.4278Z" fill="#B8943E"/>
<path d="M50.4584 55.6341C50.3947 55.6341 50.3309 55.6243 50.2671 55.6096L43.2325 53.7994C42.9038 53.716 42.6684 53.4168 42.6684 53.0734V46.0339C42.6684 45.8033 42.7763 45.5826 42.9578 45.4403C43.0853 45.3373 43.2521 45.2833 43.4189 45.2833C43.4827 45.2833 43.5465 45.2931 43.6053 45.3079L50.6399 47.118C50.9686 47.2014 51.2041 47.5007 51.2041 47.844V54.8836C51.2041 55.1141 51.0962 55.3349 50.9146 55.4771C50.7822 55.5802 50.6203 55.6341 50.4584 55.6341ZM44.1646 52.4945L49.7079 53.9221V48.4278L44.1646 47.0003V52.4945Z" fill="#B8943E"/>
<path d="M0.750555 73C0.338486 73 0 72.6615 0 72.2495C0 71.8374 0.33358 71.4989 0.750555 71.4989H4.99879V22.4627C4.99879 22.1487 5.19992 21.8642 5.49426 21.7563L13.3677 18.9159V6.19085C13.3677 5.84746 13.6032 5.54822 13.9368 5.46482L35.6096 0.0392447L35.6881 0.0196219C35.7421 0.0049051 35.7961 0 35.8451 0C35.8942 0 35.9481 0.0098108 36.0119 0.0245276L36.0806 0.0392447L57.7486 5.46482C58.0821 5.54822 58.3176 5.84746 58.3176 6.19085V36.9342L66.1715 39.5194C66.4805 39.6224 66.6865 39.9069 66.6865 40.2307V71.4989H72.0189C72.431 71.4989 72.7695 71.8325 72.7695 72.2495C72.7695 72.6665 72.4359 73 72.0189 73H0.750555ZM58.3127 71.5038H65.1854V40.7752L58.3127 38.5138V71.5038ZM36.5908 71.5038H56.8214V6.77952L36.5908 1.71696V71.5038ZM14.8639 6.77952V71.5038H35.0946V1.71205L14.8639 6.77461V6.77952ZM6.495 22.9925V71.5038H13.3677V20.5152L6.495 22.9925Z" fill="#B8943E"/>
</svg>
