<svg width="76" height="71" viewBox="0 0 76 71" fill="none" xmlns="http://www.w3.org/2000/svg">
<path d="M40.3706 65.7744C24.3584 65.7744 11.0823 53.7702 9.48004 37.8565L9.30751 36.1557L6.14251 39.3207C5.98476 39.4785 5.77774 39.5623 5.56082 39.5623C5.34391 39.5623 5.1319 39.4785 4.97907 39.3207C4.82625 39.163 4.73751 38.9559 4.73751 38.739C4.73751 38.5221 4.82132 38.3101 4.97907 38.1573L9.56881 33.5676C9.71177 33.4246 9.92373 33.3457 10.1554 33.3457C10.3871 33.3457 10.5991 33.4246 10.7372 33.5676L15.3269 38.1573C15.4846 38.315 15.5684 38.5221 15.5684 38.739C15.5684 38.9559 15.4846 39.1679 15.3269 39.3207C15.1691 39.4785 14.9621 39.5623 14.7452 39.5623C14.5283 39.5623 14.3162 39.4785 14.1585 39.3207L10.9245 36.0867L11.2203 38.4333C13.0739 53.08 25.6057 64.1229 40.3706 64.1229C40.8242 64.1229 41.1988 64.4926 41.1988 64.9511C41.1988 65.4096 40.8291 65.7793 40.3706 65.7793V65.7744Z" fill="#B8943E"/>
<path d="M57.399 71C54.8848 71 52.0206 70.8718 49.8465 69.9006C47.0808 68.6632 45.6462 66.1244 45.5821 62.3481C45.5033 57.3196 50.8374 49.1311 54.2193 45.1527L54.244 45.1231L54.2686 45.0886C54.4904 44.7682 54.4806 44.29 54.239 43.9794C53.8397 43.4568 53.4009 42.8307 52.972 42.2244C52.3509 41.3419 51.7051 40.4348 51.2121 39.858C51.01 39.6214 50.9557 39.2812 51.079 38.9953C51.1924 38.7291 51.4339 38.5417 51.7199 38.5023L51.9664 38.4678L52.1488 38.3002C52.1931 38.2607 52.2622 38.1917 52.341 38.0931C52.7601 37.5706 53.3615 37.2649 53.9925 37.255H54.0517C54.6334 37.255 55.2003 37.5213 55.6144 37.9896L56.2455 38.7094L56.8518 37.9649C57.2561 37.467 57.8427 37.1762 58.459 37.1663H58.5181C59.09 37.1663 59.6964 37.4522 60.0957 37.9156L60.7267 38.6403L61.3331 37.9009C61.7374 37.4079 62.3191 37.1219 62.9255 37.1121H63.0191C63.6107 37.1121 64.1727 37.3882 64.6016 37.891C64.6854 37.9896 64.7544 38.0537 64.7988 38.0931L64.9861 38.2509L65.2326 38.2805C65.5136 38.31 65.7651 38.4924 65.8883 38.7488C66.0214 39.0347 65.9819 39.37 65.7847 39.6165C65.3115 40.2031 64.6953 41.1398 64.0988 42.0419L62.8268 43.9745L67.6187 42.8159C67.6828 42.8011 67.7469 42.7913 67.811 42.7913C68.1906 42.7913 68.5257 43.0575 68.6145 43.4223C68.6638 43.6343 68.6293 43.8561 68.5159 44.0484C68.4025 44.2407 68.2201 44.3688 68.0032 44.4231L64.6706 45.2266L69.4279 47.45C69.842 47.6423 70.0195 48.1353 69.8273 48.5494C69.6892 48.8402 69.3984 49.0276 69.0779 49.0276C68.9547 49.0276 68.8413 49.0029 68.7279 48.9487L64.8727 47.1444L66.6425 49.6487C70.0885 54.5145 72.095 58.9859 72.1394 61.9143C72.2034 65.6905 70.8576 68.2738 68.156 69.595C65.7453 70.7732 62.462 70.9211 59.0308 70.9803C58.4787 70.9901 57.9315 70.9951 57.3892 70.9951L57.399 71ZM55.5455 46.1387C55.5257 46.1682 55.5109 46.1978 55.4863 46.2225C51.3797 51.0537 47.1745 58.3943 47.2386 62.3234C47.3076 66.4793 49.1465 67.7759 50.5219 68.3921C52.4051 69.2351 54.9341 69.3485 57.3892 69.3485C57.9216 69.3485 58.4639 69.3436 59.0062 69.3337C62.2451 69.2795 65.3263 69.1464 67.4314 68.116C68.7772 67.4554 70.5569 66.0997 70.4879 61.9438C70.4238 58.0197 65.9819 50.8171 61.7225 46.1189C61.688 46.0647 61.6634 46.0302 61.6338 46.0006L61.3923 45.695H55.8462L55.5356 46.1387H55.5455ZM54.0911 40.9426L54.3277 41.2729C54.7517 41.8694 55.1757 42.4708 55.5651 42.9885C55.6785 43.1364 55.7771 43.3139 55.8708 43.5456L56.0779 44.0435H61.0422L61.2345 43.5061C61.3232 43.2596 61.4218 43.0575 61.5401 42.8899C61.9099 42.3673 62.3141 41.756 62.7184 41.1447L62.9501 40.7898L61.8359 39.6608C61.4908 39.8827 61.126 39.9961 60.7464 40.001H60.6823C60.1154 40.001 59.5731 39.7496 59.0703 39.2467L58.4787 38.6601L57.9068 39.2664C57.4089 39.7939 56.8568 40.0651 56.2603 40.0749H56.1962C55.8511 40.0749 55.5011 39.9714 55.156 39.7693L54.0812 40.9327L54.0911 40.9426Z" fill="#B8943E"/>
<path d="M70.5068 36.2297C70.285 36.2297 70.0779 36.1459 69.9251 35.9881L65.3354 31.3984C65.1776 31.2407 65.0938 31.0336 65.0938 30.8167C65.0938 30.5998 65.1776 30.3878 65.3354 30.235C65.4932 30.0772 65.7002 29.9934 65.9171 29.9934C66.134 29.9934 66.346 30.0772 66.4988 30.235L69.8265 33.5626L69.5504 31.2407C67.7904 16.4757 55.2439 5.34407 40.3705 5.34407C39.917 5.34407 39.5423 4.97433 39.5423 4.51585C39.5423 4.05738 39.9121 3.68764 40.3705 3.68764C56.3827 3.68764 69.6638 15.6919 71.2611 31.6104L71.4336 33.3112L74.5148 30.2301C74.6726 30.0723 74.8796 29.9885 75.1014 29.9885C75.3233 29.9885 75.5304 30.0723 75.6832 30.2301C75.8409 30.3878 75.9248 30.5949 75.9248 30.8118C75.9248 31.0287 75.8409 31.2407 75.6832 31.3984L71.0935 35.9881C70.9406 36.141 70.7287 36.2297 70.5118 36.2297H70.5068Z" fill="#B8943E"/>
<path d="M0.828184 29.737C0.374636 29.737 0 29.3672 0 28.9088C0 28.4503 0.369707 28.0805 0.828184 28.0805H3.44104V16.2341L1.41487 18.2602C1.25711 18.418 1.05003 18.5018 0.833119 18.5018C0.616205 18.5018 0.404254 18.418 0.251428 18.2602C0.0986022 18.1025 0.00986937 17.8954 0.00986937 17.6736C0.00986937 17.4517 0.0936723 17.2447 0.251428 17.0919L16.9292 0.414109C17.1904 0.152826 17.57 0 17.9743 0C18.3785 0 18.7581 0.147896 19.0194 0.409179L24.0232 5.413L24.1958 3.71219C24.2401 3.28822 24.5902 2.96778 25.0092 2.96778H29.0369C29.4905 2.96778 29.8651 3.33752 29.8651 3.796V11.25L35.7021 17.0869C35.8599 17.2447 35.9437 17.4517 35.9437 17.6736C35.9437 17.8954 35.8599 18.1025 35.7021 18.2553C35.5444 18.4131 35.3373 18.4969 35.1155 18.4969C34.8936 18.4969 34.6866 18.4131 34.5338 18.2553L32.5075 16.2291V28.0756H35.1204C35.5739 28.0756 35.9486 28.4453 35.9486 28.9038C35.9486 29.3623 35.5789 29.732 35.1204 29.732H0.838054L0.828184 29.737ZM21.1245 18.7927C21.578 18.7927 21.9527 19.1624 21.9527 19.6209V28.0855H30.8511V14.5875L17.9743 1.71066L5.09747 14.5875V28.0855H13.9219V19.6209C13.9219 19.1673 14.2917 18.7927 14.7502 18.7927H21.1343H21.1245ZM15.5685 28.0855H20.3012V20.4442H15.5685V28.0855ZM25.8325 7.22226L28.2087 9.49493V4.62915H25.8325V7.22226Z" fill="#B8943E"/>
</svg>
