<svg width="22" height="22" viewBox="0 0 22 22" fill="none" xmlns="http://www.w3.org/2000/svg">
<path d="M0.358996 7.28118H4.92469V21.9448H0.358996V7.28118ZM2.64185 0C4.10545 0 5.28369 1.18745 5.28369 2.64184C5.28369 4.09624 4.10545 5.28369 2.64185 5.28369C1.17825 5.28369 0 4.09624 0 2.64184C0 1.18745 1.17825 0 2.64185 0Z" fill="white"/>
<path d="M7.78747 7.28142H12.1599V9.28811H12.2151C12.8226 8.13748 14.3138 6.92242 16.5323 6.92242C21.144 6.92242 22 9.96008 22 13.909V21.945H17.4435V14.8203C17.4435 13.1174 17.4067 10.9358 15.0779 10.9358C12.749 10.9358 12.344 12.786 12.344 14.7007V21.9542H7.78747V7.29062V7.28142Z" fill="white"/>
</svg>
