<svg width="74" height="73" viewBox="0 0 74 73" fill="none" xmlns="http://www.w3.org/2000/svg">
<path d="M41.2377 34.2296C40.828 34.2296 40.4964 33.8979 40.4964 33.4882C40.4964 33.0785 40.828 32.7468 41.2377 32.7468H50.2658V16.7002L35.0337 1.4681L19.8016 16.7002V32.7468H27.4689C27.8786 32.7468 28.2102 33.0785 28.2102 33.4882C28.2102 33.8979 27.8786 34.2296 27.4689 34.2296H15.0607C14.651 34.2296 14.3194 33.8979 14.3194 33.4882C14.3194 33.0785 14.651 32.7468 15.0607 32.7468H18.3237V18.1781L15.5826 20.9192C15.4412 21.0606 15.2558 21.1338 15.0607 21.1338C14.8656 21.1338 14.6754 21.0557 14.5389 20.9192C14.4023 20.7826 14.3242 20.5924 14.3242 20.3973C14.3242 20.2022 14.4023 20.012 14.5389 19.8754L33.9753 0.438966C34.2582 0.156077 34.6338 0 35.0337 0C35.4337 0 35.8092 0.156077 36.0969 0.438966L55.5334 19.8754C55.6748 20.0168 55.748 20.2022 55.748 20.3973C55.748 20.5924 55.6699 20.7777 55.5334 20.9192C55.3919 21.0606 55.2066 21.1386 55.0115 21.1386C54.8164 21.1386 54.6262 21.0606 54.4896 20.924L51.7437 18.1781V32.7468H55.0115C55.4212 32.7468 55.7529 33.0785 55.7529 33.4882C55.7529 33.8979 55.4212 34.2296 55.0115 34.2296H41.2377Z" fill="#B8943E"/>
<path d="M0.741374 30.2983C0.331673 30.2983 0 29.9667 0 29.557C0 29.1473 0.331673 28.8156 0.741374 28.8156H2.8045V19.3778L1.26329 20.9191C1.12184 21.0605 0.93647 21.1337 0.741374 21.1337C0.546278 21.1337 0.356086 21.0557 0.219519 20.9191C0.0780741 20.7777 0.00488216 20.5923 0.00488216 20.3972C0.00488216 20.2021 0.0829515 20.0119 0.219519 19.8753L13.8226 6.27227C14.0616 6.03328 14.3835 5.90159 14.72 5.90159C15.0566 5.90159 15.3784 6.03328 15.6174 6.27227L19.5779 10.2327C19.7193 10.3742 19.7925 10.5595 19.7925 10.7546C19.7925 10.9497 19.7144 11.1399 19.5779 11.2765C19.4364 11.4179 19.2511 11.4911 19.056 11.4911C18.8609 11.4911 18.6707 11.413 18.5341 11.2765L14.72 7.46236L4.28237 17.9V28.8156H14.8029C15.2127 28.8156 15.5443 29.1473 15.5443 29.557C15.5443 29.9667 15.2127 30.2983 14.8029 30.2983H0.736492H0.741374Z" fill="#B8943E"/>
<path d="M55.0072 30.2983C54.5975 30.2983 54.2658 29.9667 54.2658 29.557C54.2658 29.1473 54.5975 28.8156 55.0072 28.8156H69.2297V17.9L58.7921 7.46237L53.2075 13.047C53.066 13.1884 52.8807 13.2616 52.6856 13.2616C52.4905 13.2616 52.3003 13.1836 52.1637 13.047C52.0223 12.9055 51.9491 12.7202 51.9491 12.5251C51.9491 12.33 52.0271 12.1398 52.1637 12.0032L57.8946 6.26741C58.119 6.04305 58.4458 5.91624 58.797 5.91624C59.1481 5.91624 59.47 6.04305 59.6944 6.26741L73.2974 19.8705C73.4389 20.0119 73.5121 20.1973 73.5121 20.3924C73.5121 20.5874 73.434 20.7777 73.2974 20.9142C73.156 21.0557 72.9707 21.1288 72.7756 21.1288C72.5805 21.1288 72.3902 21.0508 72.2537 20.9142L70.7124 19.373V28.8107H72.7756C73.1853 28.8107 73.5169 29.1424 73.5169 29.5521C73.5169 29.9618 73.1853 30.2935 72.7756 30.2935H55.0121L55.0072 30.2983Z" fill="#B8943E"/>
<path d="M32.7521 72.9952C32.3424 72.9952 32.0108 72.6635 32.0108 72.2538V63.8013C32.0108 63.3916 32.3424 63.0599 32.7521 63.0599H34.9519L34.9811 60.6407L34.6641 60.4115C33.4301 59.5238 30.4549 57.2119 29.4794 54.9439L29.455 54.8903L29.2697 54.5927C28.4308 53.2319 27.6455 51.5395 27.1236 50.4226L27.0212 50.2031C26.8602 49.8617 26.7578 49.6324 26.6749 49.491L26.631 49.4129L26.5822 49.3105C26.5676 49.2812 26.5579 49.2617 26.553 49.2374C26.3725 48.774 25.3775 46.7011 24.0558 45.7061C23.7973 45.511 23.368 45.2428 22.8754 44.9599L22.7584 44.8916C22.6754 44.8428 22.6023 44.7843 22.5438 44.7111L22.4608 44.6087C21.3293 43.1845 21.6951 42.2237 22.017 41.7798C22.456 41.175 23.3534 40.8238 24.4801 40.8238C25.002 40.8238 25.558 40.897 26.1287 41.0385C27.3431 41.3457 29.016 41.9993 30.1086 43.3796C30.3281 43.6527 30.5281 43.9015 30.7085 44.1356L32.0595 45.8768V29.1035C32.0595 27.372 33.1277 26.2112 34.7226 26.2112C36.4151 26.2112 37.7905 27.5086 37.7905 29.1083L37.8002 37.317L38.7123 37.1219C38.9367 37.0731 39.1659 37.0487 39.3952 37.0487C40.5706 37.0487 41.6534 37.6974 42.1655 38.6973L42.4582 39.2728L43.0727 39.0777C43.3898 38.9753 43.7214 38.9265 44.058 38.9265C45.409 38.9265 46.6186 39.7801 47.0039 40.9994L47.2185 41.6823L47.9111 41.5067C48.1745 41.4384 48.4427 41.4043 48.7207 41.4043C50.4132 41.4043 51.7886 42.7016 51.7886 44.2966V48.8472H51.7545L51.7886 49.6373C51.8374 50.7006 51.9642 56.2023 49.4085 59.8359L49.2719 60.031V63.0648H51.0717C51.4814 63.0648 51.813 63.3964 51.813 63.8061V72.2587C51.813 72.6684 51.4814 73 51.0717 73H32.7473L32.7521 72.9952ZM33.4935 71.5173H50.3352V64.5426H33.4935V71.5173ZM24.4069 42.3017C24.2557 42.3017 24.1192 42.3115 24.007 42.3261L22.7632 42.4822L23.4997 43.5308L23.6217 43.6869L23.7436 43.7552C24.2362 44.0429 24.6654 44.3161 24.9434 44.5258C26.631 45.7939 27.7089 48.179 27.9089 48.6472L27.9479 48.7252C28.0699 48.935 28.2064 49.2374 28.4698 49.8031C28.9721 50.8908 29.7379 52.5345 30.533 53.8221L30.7378 54.1489L30.7671 54.1977C30.7671 54.1977 30.8061 54.2708 30.8158 54.305C31.6547 56.3486 35.0202 58.8995 36.1322 59.6311C36.3468 59.7725 36.4736 60.0115 36.4736 60.2652L36.4395 63.0648H47.8038V59.7774C47.8038 59.6116 47.8624 59.4457 47.9648 59.3189C50.6961 55.8706 50.3303 49.7251 50.3254 49.6617V49.6032V44.2966C50.3254 43.5162 49.6133 42.8821 48.7354 42.8821C47.8575 42.8821 47.1892 43.4723 47.1453 44.2283C47.1258 44.6185 46.8185 44.9257 46.4527 44.9257H46.3893C45.9845 44.9111 45.6724 44.5892 45.6724 44.1844V41.8188C45.6724 41.0384 44.9554 40.4044 44.0774 40.4044C43.1995 40.4044 42.4874 41.0384 42.4874 41.8188C42.4874 42.2285 42.1558 42.5602 41.7461 42.5602C41.3364 42.5602 41.0047 42.2285 41.0047 41.8188V39.9459C41.0047 39.1655 40.2926 38.5315 39.4147 38.5315C38.7221 38.5315 38.0978 38.946 37.8929 39.5362C37.7905 39.8337 37.5076 40.0337 37.1954 40.0337H37.0833C36.6736 40.0337 36.3419 39.702 36.3419 39.2972L36.3321 29.1132C36.3321 28.3328 35.62 27.6988 34.7421 27.6988C34.3861 27.6988 33.5618 27.8353 33.5618 29.1132V46.5841C33.5618 46.7011 33.5325 46.8182 33.4789 46.9255L32.8936 48.057C32.7814 48.2765 32.5717 48.4228 32.3278 48.4521C32.2985 48.4521 32.2693 48.457 32.2352 48.457C32.0206 48.457 31.8206 48.3643 31.6791 48.2082C31.5767 48.096 31.5133 47.9692 31.4402 47.8278C31.2402 47.4473 30.7817 46.5548 29.0063 44.36C28.3089 43.482 27.2212 42.848 25.7823 42.4822C25.3336 42.37 24.8508 42.3066 24.4216 42.3066L24.4069 42.3017Z" fill="#B8943E"/>
</svg>
