<svg width="15" height="15" viewBox="0 0 15 15" fill="none" xmlns="http://www.w3.org/2000/svg">
<path d="M14.9012 12.1521C14.9012 12.4393 14.9033 12.7265 14.9012 13.0137C14.8892 14.4183 14.0298 15.1586 12.6284 14.9711C6.25028 14.1203 1.05563 9.03511 0.0617816 2.66128C0.0173459 2.37841 0.00108891 2.08903 5.10564e-06 1.80183C-0.00216249 0.784138 0.68605 0.0525735 1.70157 0.0178919C2.40929 -0.00703547 3.11918 -0.00486787 3.82799 0.0178919C4.76872 0.0482383 5.42659 0.672507 5.59783 1.59699C5.70513 2.1779 5.83085 2.76316 6.02268 3.32023C6.32072 4.18077 6.1549 4.88632 5.50571 5.51601C4.89553 6.10776 4.90637 6.12077 5.40708 6.82524C6.21451 7.96214 7.20294 8.91047 8.35827 9.69189C8.6975 9.92057 8.95761 9.97909 9.24156 9.62361C9.95904 8.72297 10.8413 8.53981 11.9034 8.98959C12.3196 9.16624 12.7856 9.23994 13.2364 9.31147C14.2715 9.47621 14.8752 10.133 14.899 11.1724C14.9066 11.4975 14.9001 11.8237 14.9001 12.1489L14.9012 12.1521ZM2.85365 0.622652C2.52851 0.622652 2.20229 0.616149 1.87715 0.623736C0.913648 0.645412 0.414017 1.20682 0.566832 2.14756C1.45988 7.67385 4.48477 11.5322 9.69676 13.5892C10.7816 14.0173 11.9825 14.1799 13.1454 14.3663C13.7718 14.4671 14.2487 14.0477 14.2932 13.4202C14.3528 12.5846 14.3354 11.7381 14.2856 10.9003C14.2531 10.3628 13.8607 10.0647 13.3535 9.93791C12.6501 9.76125 11.9413 9.60735 11.2423 9.4166C10.7545 9.28438 10.3351 9.35374 9.97205 9.71031C9.78021 9.89781 9.57537 10.0745 9.40305 10.2793C9.08875 10.6532 8.7842 10.6803 8.36152 10.4094C7.05446 9.57159 5.93923 8.53873 5.02233 7.29019C4.14012 6.08934 4.13578 6.07958 5.1719 5.01746C5.57724 4.60236 5.69862 4.15801 5.50571 3.60635C5.37348 3.22811 5.24668 2.84011 5.1849 2.4456C4.8977 0.592306 4.48694 0.584719 2.85365 0.623736V0.622652Z" fill="#D2AE4D"/>
</svg>
