<svg width="72" height="70" viewBox="0 0 72 70" fill="none" xmlns="http://www.w3.org/2000/svg">
<path d="M11.773 33.6173C11.3926 33.6173 11.0805 33.3198 11.0805 32.954C11.0805 32.5883 11.3926 32.2908 11.773 32.2908H13.5629V24.4826L12.2412 25.6531C12.1144 25.7653 11.9437 25.8287 11.7681 25.8287C11.5926 25.8287 11.4121 25.7604 11.2853 25.6385C11.1536 25.5117 11.0805 25.3459 11.0805 25.1703C11.0805 24.9947 11.1536 24.824 11.2853 24.7021L23.3267 13.1289C23.5462 12.9192 23.8388 12.8021 24.151 12.8021C24.4631 12.8021 24.7508 12.9192 24.9703 13.1289L31.1836 19.1033V15.3333C31.1836 14.9675 31.4958 14.67 31.8762 14.67C32.2566 14.67 32.5687 14.9675 32.5687 15.3333V20.4347L37.0117 24.7021C37.1434 24.8289 37.2165 24.9947 37.2165 25.1703C37.2165 25.3459 37.1434 25.5166 37.0117 25.6385C36.88 25.7653 36.7044 25.8336 36.524 25.8336C36.3533 25.8336 36.1875 25.7702 36.0607 25.6531L34.739 24.4875V32.2956H36.5289C36.9093 32.2956 37.2214 32.5931 37.2214 32.9589C37.2214 33.3247 36.9093 33.6222 36.5289 33.6222H11.7828L11.773 33.6173ZM26.3212 32.2859H33.349V23.0488L24.151 14.2067L14.9528 23.0488V32.2859H21.9807V27.3259H26.3261V32.2859H26.3212Z" fill="#B8943E"/>
<path d="M3.33566 70C2.95525 70 2.64313 69.7025 2.64313 69.3367V45.7465C2.64313 45.3807 2.95525 45.0832 3.33566 45.0832C3.71607 45.0832 4.02821 45.3807 4.02821 45.7465V68.6685H52.0524C52.4328 68.6685 52.7449 68.966 52.7449 69.3318C52.7449 69.6976 52.4328 69.9951 52.0524 69.9951H3.34054L3.33566 70Z" fill="#B8943E"/>
<path d="M56.0907 38.509C55.7103 38.509 55.3981 38.2115 55.3981 37.8457V1.33132H45.1027C44.7223 1.33132 44.4102 1.03382 44.4102 0.668039C44.4102 0.302261 44.7223 0.00476097 45.1027 0.00476097H56.0858C56.4662 0.00476097 56.7784 0.302261 56.7784 0.668039V37.8457C56.7784 38.2115 56.4662 38.509 56.0858 38.509H56.0907Z" fill="#B8943E"/>
<path d="M11.773 56.003C11.3926 56.003 11.0805 55.7055 11.0805 55.3397C11.0805 54.9739 11.3926 54.6764 11.773 54.6764H36.5191C36.8995 54.6764 37.2117 54.9739 37.2117 55.3397C37.2117 55.7055 36.8995 56.003 36.5191 56.003H11.773Z" fill="#B8943E"/>
<path d="M11.773 62.2504C11.3926 62.2504 11.0805 61.9529 11.0805 61.5872C11.0805 61.2214 11.3926 60.9239 11.773 60.9239H36.5191C36.8995 60.9239 37.2117 61.2214 37.2117 61.5872C37.2117 61.9529 36.8995 62.2504 36.5191 62.2504H11.773Z" fill="#B8943E"/>
<path d="M64.889 68.815C63.0943 68.815 61.4068 68.1469 60.1437 66.9276L45.932 53.267C43.6788 51.1016 43.3276 47.6828 45.0882 45.137L45.4443 44.62L40.7184 40.0795L40.1624 40.5575C35.7487 44.3323 30.0621 46.4099 24.1413 46.4099C17.6939 46.4099 11.6317 43.9958 7.07171 39.6113C2.51168 35.2269 0 29.4037 0 23.205C0 17.0062 2.51168 11.1782 7.07171 6.79859C11.6317 2.41901 17.6939 0 24.1413 0C30.5888 0 36.651 2.41413 41.211 6.79859C45.771 11.1831 48.2827 17.0111 48.2827 23.205C48.2827 28.8965 46.1222 34.3636 42.1962 38.6066L41.6987 39.1431L46.4245 43.6836L46.961 43.3374C48.0584 42.6351 49.3459 42.2644 50.6773 42.2644C52.4721 42.2644 54.1546 42.9326 55.4178 44.1518L69.6295 57.8124C70.8927 59.0268 71.5901 60.646 71.5901 62.3725C71.5901 64.0989 70.8927 65.7181 69.6295 66.9325C68.3663 68.1469 66.6789 68.8199 64.8841 68.8199L64.889 68.815ZM50.6773 43.591C49.2532 43.591 47.9169 44.1226 46.9122 45.0882C45.9076 46.0539 45.3516 47.3414 45.3516 48.707C45.3516 50.0726 45.9076 51.3601 46.9122 52.3258L61.1239 65.9863C62.1286 66.952 63.4649 67.4836 64.889 67.4836C66.3131 67.4836 67.6494 66.952 68.6541 65.9863C69.6588 65.0207 70.2147 63.7332 70.2147 62.3676C70.2147 61.002 69.6588 59.7145 68.6541 58.7488L54.4424 45.0882C53.4377 44.1226 52.1014 43.591 50.6773 43.591ZM24.1462 1.33143C18.0694 1.33143 12.3536 3.60901 8.05688 7.73986C3.76021 11.8707 1.38996 17.3623 1.38996 23.2098C1.38996 29.0574 3.75533 34.5441 8.05688 38.6749C12.3536 42.8058 18.0694 45.0834 24.1462 45.0834C30.223 45.0834 35.9389 42.8058 40.2356 38.6749C44.5322 34.5441 46.9025 29.0525 46.9025 23.2098C46.9025 17.3671 44.5371 11.8756 40.2356 7.73986C35.9389 3.60901 30.223 1.33143 24.1462 1.33143Z" fill="#B8943E"/>
</svg>
