<svg width="14" height="15" viewBox="0 0 14 15" fill="none" xmlns="http://www.w3.org/2000/svg">
<path fill-rule="evenodd" clip-rule="evenodd" d="M10.2994 14.0012C9.28895 13.9641 6.42747 13.569 3.43084 10.5724C0.434212 7.57574 0.0391453 4.71426 0.00196056 3.70382C-0.0546943 2.1643 1.12463 0.668446 2.48754 0.084341C2.80735 -0.0527191 3.1947 -0.0276359 3.50091 0.195727C4.62203 1.01351 5.39664 2.24995 6.06163 3.22277C6.36202 3.66222 6.29024 4.26223 5.88217 4.61545L4.51397 5.63155C4.37836 5.73226 4.33328 5.91532 4.41461 6.06337C4.72417 6.62683 5.27566 7.46538 5.90674 8.09647C6.53851 8.72823 7.41666 9.31531 8.01886 9.65972C8.17502 9.74903 8.37146 9.69731 8.47019 9.54692L9.36028 8.19111C9.70159 7.73689 10.339 7.63765 10.8023 7.95832C11.7892 8.64138 12.9405 9.402 13.7835 10.4816C14.0231 10.7883 14.0587 11.1895 13.9158 11.5229C13.329 12.892 11.8441 14.0581 10.2994 14.0012Z" fill="#BF932A"/>
</svg>
