<svg width="73" height="57" viewBox="0 0 73 57" fill="none" xmlns="http://www.w3.org/2000/svg">
<path d="M47.8345 57.0001C47.673 57.0001 47.5116 56.9854 47.355 56.9511L21.8302 51.7493L14.162 51.671V54.2744C14.162 54.6414 13.8635 54.9399 13.4964 54.9399H0.665546C0.29853 54.9399 0 54.6414 0 54.2744V29.4493C0 29.0823 0.29853 28.7838 0.665546 28.7838H13.4964C13.8635 28.7838 14.162 29.0823 14.162 29.4493V32.3659L26.528 30.3253C27.4969 30.1638 28.4854 30.0855 29.469 30.0855C30.3303 30.0855 31.2013 30.1491 32.0577 30.2715L44.9963 32.1457C46.1071 32.3072 47.076 32.8797 47.722 33.7606C48.3435 34.6071 48.593 35.6397 48.4266 36.6722C48.1134 38.6052 46.4252 40.0635 44.4041 40.1515L37.7391 40.729L37.5238 42.3439L46.8558 45.7889L60.3425 43.6847L68.2309 41.8496C68.5196 41.7811 68.8132 41.7517 69.1068 41.7517C70.7853 41.7517 72.317 42.8479 72.8259 44.4187C73.374 46.1168 72.5176 48.0008 70.8244 48.8033L61.8056 53.0803C61.7763 53.095 61.742 53.1097 61.7028 53.1195L48.5 56.9071C48.2847 56.9707 48.0596 57.0001 47.8345 57.0001ZM29.4739 31.4214C28.5637 31.4214 27.6486 31.4948 26.7482 31.6465L14.1669 33.7214V50.3448L21.9085 50.4231C21.9476 50.4231 21.9917 50.4231 22.0308 50.4378L47.7024 55.669H47.8345C47.9422 55.6739 48.0449 55.6592 48.1477 55.625L61.2869 51.8569L70.2568 47.5995C71.3432 47.0857 71.9059 45.8917 71.5634 44.8298C71.2306 43.8021 70.2225 43.0828 69.1117 43.0828C68.916 43.0828 68.7251 43.1072 68.5343 43.1464L60.6214 44.9864L46.8901 47.1347C46.8558 47.1395 46.8215 47.1444 46.7873 47.1444C46.709 47.1444 46.6356 47.1298 46.5573 47.1053L30.7756 41.2771C30.482 41.1694 30.3058 40.8758 30.345 40.5675C30.389 40.2543 30.6337 40.0194 30.9469 39.9949L44.2867 38.8401C45.7009 38.7911 46.9048 37.7733 47.1103 36.4765C47.2228 35.7963 47.0565 35.1161 46.6503 34.5631C46.2148 33.971 45.559 33.5844 44.8054 33.4767L31.8668 31.6025C31.0741 31.4899 30.2667 31.4312 29.469 31.4312L29.4739 31.4214ZM1.33596 53.6137H12.8358V30.1198H1.33596V53.6137Z" fill="#B8943E"/>
<path d="M53.3689 38.3117C53.0018 38.3117 52.7033 38.0131 52.7033 37.6461C52.7033 37.2791 53.0018 36.9806 53.3689 36.9806H64.996V18.6151L47.6238 1.24296L30.2468 18.62V26.4154C30.2468 26.7824 29.9483 27.0809 29.5812 27.0809C29.2142 27.0809 28.9157 26.7824 28.9157 26.4154V19.951L25.5245 23.3423C25.3973 23.4695 25.2309 23.538 25.0547 23.538C24.8785 23.538 24.7121 23.4695 24.5849 23.3423C24.4577 23.215 24.3892 23.0487 24.3892 22.8725C24.3892 22.6963 24.4577 22.5299 24.5849 22.4027L46.5423 0.445314C46.831 0.156594 47.2128 0 47.6189 0C48.0251 0 48.4117 0.156594 48.6955 0.445314L56.2707 8.02543V4.57548C56.2707 4.20846 56.5692 3.90995 56.9362 3.90995H62.236C62.603 3.90995 62.9015 4.20846 62.9015 4.57548V14.6562L70.648 22.4027C70.7752 22.5299 70.8437 22.6963 70.8437 22.8725C70.8437 23.0487 70.7752 23.215 70.648 23.3423C70.5207 23.4695 70.3544 23.538 70.1782 23.538C70.002 23.538 69.8357 23.4695 69.7085 23.3423L66.3172 19.951V36.9855H70.1782C70.5452 36.9855 70.8437 37.284 70.8437 37.651C70.8437 38.018 70.5452 38.3165 70.1782 38.3165H53.364L53.3689 38.3117ZM57.6066 9.34669L61.5754 13.3154V5.23121H57.6066V9.34669Z" fill="#B8943E"/>
<path d="M51.8715 32.1211C51.5045 32.1211 51.206 31.8226 51.206 31.4556V26.0776H44.1349V28.3727C44.1349 28.7397 43.8364 29.0382 43.4693 29.0382C43.1023 29.0382 42.8038 28.7397 42.8038 28.3727V25.4121C42.8038 25.0451 43.1023 24.7466 43.4693 24.7466H51.8715C52.2386 24.7466 52.5371 25.0451 52.5371 25.4121V31.4507C52.5371 31.8177 52.2386 32.1163 51.8715 32.1163V32.1211Z" fill="#B8943E"/>
</svg>
