<svg width="14" height="14" viewBox="0 0 14 14" fill="none" xmlns="http://www.w3.org/2000/svg">
<path d="M0.0512161 13.8494C-0.0570999 13.6087 0.0542241 13.4432 0.222715 13.2747C4.3357 9.16173 8.44868 5.04875 12.5617 0.935763C12.6188 0.878596 12.676 0.821429 12.7332 0.764263C12.7271 0.728157 12.7211 0.698071 12.7151 0.661966C12.6399 0.683027 12.5677 0.719132 12.4955 0.719131C8.50886 0.722141 4.52224 0.719132 0.535627 0.72214C0.451381 0.722141 0.367136 0.72214 0.285899 0.707096C0.120417 0.674 0.00307528 0.532588 6.66215e-05 0.367105C-0.00294271 0.201624 0.105373 0.0572034 0.270855 0.0180895C0.340057 0.00304531 0.409259 3.61583e-05 0.481469 3.62641e-05C4.92843 3.64441e-05 9.37538 3.72912e-05 13.8223 3.763e-05C13.8705 3.69523e-05 13.9216 0.0030456 13.9908 0.00605424C13.9938 0.0752558 13.9999 0.135431 13.9999 0.195606C13.9999 4.61248 13.9999 9.02935 13.9999 13.4402C13.9999 13.5305 13.9999 13.6207 13.9848 13.708C13.9547 13.8885 13.8103 14.0028 13.6328 13.9998C13.4673 13.9968 13.3259 13.8795 13.2928 13.714C13.2778 13.6267 13.2778 13.5365 13.2778 13.4462C13.2747 9.46562 13.2778 5.48502 13.2808 1.50442C13.2808 1.43221 13.3199 1.35699 13.3439 1.28478C13.3078 1.27876 13.2717 1.27274 13.2386 1.26974C13.1815 1.3269 13.1243 1.38407 13.0671 1.44124C8.95416 5.55422 4.84117 9.6672 0.728188 13.7802C0.562706 13.9457 0.394215 14.06 0.156523 13.9487L0.0482069 13.8404L0.0512161 13.8494Z" fill="#BF932A"/>
</svg>
