<svg width="12" height="16" viewBox="0 0 12 16" fill="none" xmlns="http://www.w3.org/2000/svg">
<path d="M8.59879 13.3544C10.5442 11.2246 12.0837 8.91295 11.9965 5.86151C11.9018 2.59335 9.19911 -0.0296387 5.95337 0.000252966C2.74998 0.0301446 0.117028 2.62075 0.00493393 5.83411C-0.0797591 8.29768 0.934066 10.3403 2.41619 12.1985C3.02399 12.9633 4.08016 14.0518 4.72533 14.7867C4.57836 14.7867 4.43139 14.7792 4.2072 14.7792H1.8632C1.65645 14.7792 1.48706 14.9486 1.48706 15.1553C1.48706 15.3621 1.65396 15.5315 1.86071 15.5315C4.61572 15.5514 7.36825 15.5539 10.1208 15.5315C10.3499 15.5315 10.5343 15.3421 10.5343 15.1155C10.5343 14.8863 10.3474 14.6995 10.1183 14.6995H7.34583C7.95362 14.0493 8.27994 13.7056 8.59879 13.3568V13.3544ZM5.61958 14.144C3.11865 12.0466 1.10345 9.64031 0.836918 6.48425C0.889229 4.04808 1.81089 2.41899 3.74388 1.48736C5.66442 0.560722 7.5476 0.772454 9.22402 2.09267C11.0624 3.53743 11.5107 5.52772 10.9627 7.68739C10.2827 10.3577 8.55893 12.3754 6.46651 14.0867C6.27969 14.2362 5.7815 14.2785 5.61958 14.144Z" fill="#BF932A"/>
<path d="M6.06537 3.43978C4.55335 3.41736 3.35021 4.55822 3.32281 6.04035C3.29292 7.4901 4.50104 8.76797 5.9458 8.81529C7.36815 8.86262 8.63854 7.62212 8.66594 6.15743C8.69334 4.62797 7.57739 3.4622 6.06537 3.43978ZM5.99811 7.85876C4.98678 7.85129 4.18718 7.02429 4.21707 6.02042C4.24696 5.09129 5.05403 4.33404 6.01057 4.34151C7.02688 4.34649 7.82898 5.16602 7.78912 6.15743C7.75176 7.10649 6.95215 7.86374 5.99811 7.85876Z" fill="#BF932A"/>
</svg>
