<svg width="67" height="73" viewBox="0 0 67 73" fill="none" xmlns="http://www.w3.org/2000/svg">
<path d="M0.653153 73C0.289749 73 0 72.7053 0 72.3419C0 71.9785 0.29466 71.6838 0.653153 71.6838H4.71443V53.8034L1.11968 57.3981C0.996905 57.5209 0.829934 57.5897 0.658054 57.5897C0.486174 57.5897 0.319203 57.5209 0.196432 57.3981C0.07366 57.2754 0.00491566 57.1084 0.00491566 56.9365C0.00491566 56.7646 0.07366 56.5977 0.196432 56.4749L15.6804 40.9909C15.8032 40.8682 15.9701 40.7994 16.142 40.7994C16.3139 40.7994 16.4809 40.8682 16.6036 40.9909C16.7264 41.1137 16.7952 41.2807 16.7952 41.4526C16.7952 41.6244 16.7264 41.7914 16.6036 41.9142L6.02564 52.4922V71.6838H42.312V52.4922L31.734 41.9142C31.6112 41.7914 31.5425 41.6244 31.5425 41.4526C31.5425 41.2807 31.6112 41.1137 31.734 40.9909C31.8568 40.8682 32.0238 40.7994 32.2005 40.7994C32.3773 40.7994 32.5394 40.8682 32.6622 40.9909L48.1461 56.4749C48.2689 56.5977 48.3376 56.7646 48.3376 56.9365C48.3376 57.1084 48.2689 57.2754 48.1461 57.3981C48.0233 57.5209 47.8564 57.5897 47.6845 57.5897C47.5126 57.5897 47.3457 57.5209 47.2229 57.3981L43.6281 53.8034V71.6838H47.6894C48.0528 71.6838 48.3426 71.9785 48.3426 72.3419C48.3426 72.7053 48.0479 73 47.6894 73H0.66297H0.653153Z" fill="#B8943E"/>
<path d="M36.954 32.7751C36.8509 32.7751 36.7478 32.7751 36.6446 32.7604C35.7951 32.6818 35.029 32.2742 34.4888 31.6112C33.4771 30.3688 33.5115 28.5419 34.5673 27.27L39.7925 21.3377L39.8171 21.2984C40.5095 20.2917 40.2001 19.3095 40.0331 18.9363C39.6747 18.1309 38.938 17.5907 38.0639 17.4974L30.8547 16.7362L21.3178 20.8564L17.3744 25.6052C16.7802 26.3222 15.852 26.7495 14.8944 26.7495C14.3493 26.7495 13.8239 26.612 13.3622 26.3517C11.9872 25.5709 11.4814 23.857 12.2131 22.4574L15.69 15.759C15.8422 15.4643 16.073 15.2089 16.348 15.0272L26.7984 8.06364C27.0685 7.88194 27.3828 7.7739 27.702 7.73952L47.9151 5.63276L52.8161 4.69479L52.438 2.34248C52.4085 2.1706 52.4527 1.99381 52.5558 1.85631C52.659 1.71389 52.8112 1.62059 52.9831 1.59112L62.8932 0.00982102C62.9276 0.00491015 62.962 0 62.9964 0C63.1339 0 63.2713 0.0441978 63.3843 0.122772C63.5267 0.2259 63.62 0.378136 63.6446 0.550016L66.7041 19.722C66.7335 19.8939 66.6893 20.0707 66.5862 20.2082C66.4831 20.3506 66.3308 20.4439 66.159 20.4685L56.2488 22.0498C56.2144 22.0547 56.1801 22.0596 56.1408 22.0596C55.8216 22.0596 55.5466 21.8239 55.4975 21.5096L55.1095 19.0689L52.8014 19.3537L52.6 19.5747C52.0991 20.1345 51.1906 21.5096 50.5915 22.4181C49.5946 23.9306 48.9562 24.8735 48.4896 25.2664L39.0952 31.9746C38.442 32.505 37.7152 32.7702 36.9491 32.7702L36.954 32.7751ZM30.8253 15.4152L38.2063 16.196C39.5568 16.3384 40.6912 17.1635 41.2412 18.4059C41.7912 19.6484 41.639 21.0431 40.8385 22.1382L40.7943 22.1922L35.5692 28.1245C34.9209 28.9004 34.9062 30.0398 35.5102 30.7862C35.8245 31.1742 36.2714 31.4148 36.7723 31.459C36.8313 31.4639 36.8902 31.4688 36.954 31.4688C37.4206 31.4688 37.8822 31.2969 38.2603 30.9826L38.3045 30.9483L47.6842 24.2498L47.7285 24.2057C48.0722 23.8668 48.7352 22.8748 49.5062 21.7109C50.6013 20.0462 51.554 18.6122 52.2465 18.1751C52.3299 18.1211 52.4183 18.0916 52.5166 18.0769L54.918 17.7822L53.0371 5.99617L48.1459 6.92923L48.0869 6.93905L27.6528 9.06546L16.9177 16.2353L13.3917 23.0663C12.989 23.8373 13.2689 24.7851 14.0252 25.2173C14.2904 25.3695 14.5998 25.4481 14.919 25.4481C15.4837 25.4481 16.0288 25.1927 16.3775 24.7704L20.4241 19.9037C20.4879 19.8252 20.5763 19.7613 20.6696 19.722L30.511 15.4692C30.5945 15.4348 30.6829 15.4152 30.7713 15.4152C30.7958 15.4152 30.8154 15.4152 30.84 15.4152H30.8253ZM53.8425 2.78446L56.6957 20.66L65.3094 19.285L62.4561 1.40942L53.8425 2.78446Z" fill="#B8943E"/>
<path d="M23.8718 41.1776C19.786 41.1776 16.4613 37.8529 16.4613 33.7671C16.4613 29.6813 19.786 26.3566 23.8718 26.3566C27.9576 26.3566 31.2823 29.6813 31.2823 33.7671C31.2823 37.8529 27.9576 41.1776 23.8718 41.1776ZM23.8718 27.6727C20.5079 27.6727 17.7725 30.4081 17.7725 33.772C17.7725 37.1359 20.5079 39.8713 23.8718 39.8713C27.2357 39.8713 29.9711 37.1359 29.9711 33.772C29.9711 30.4081 27.2357 27.6727 23.8718 27.6727Z" fill="#B8943E"/>
<path d="M23.8719 33.0403C23.4987 33.0403 23.1893 32.7359 23.1893 32.3577C23.1893 31.9796 23.4938 31.6751 23.8719 31.6751C24.1813 31.6751 24.4514 31.8814 24.53 32.1809C24.6331 32.5689 25.0358 32.7997 25.4188 32.6966C25.8068 32.5934 26.0376 32.1957 25.9345 31.8077C25.7528 31.1153 25.2421 30.5849 24.5987 30.3492V30.3197C24.5987 29.917 24.2746 29.5929 23.8719 29.5929C23.4692 29.5929 23.1451 29.917 23.1451 30.3197V30.3541C22.325 30.6537 21.7357 31.4296 21.7357 32.3528C21.7357 33.5314 22.6933 34.489 23.8719 34.489C24.2451 34.489 24.5545 34.7935 24.5545 35.1717C24.5545 35.5498 24.25 35.8543 23.8719 35.8543C23.5723 35.8543 23.3023 35.6529 23.2188 35.3681C23.1058 34.985 22.7031 34.7641 22.3152 34.877C21.9321 34.99 21.7111 35.3976 21.8241 35.7806C22.0205 36.4387 22.5214 36.9445 23.1451 37.1704V37.2048C23.1451 37.6074 23.4692 37.9316 23.8719 37.9316C24.2746 37.9316 24.5987 37.6074 24.5987 37.2048V37.1704C25.4188 36.8708 26.0081 36.0949 26.0081 35.1717C26.0081 33.993 25.0505 33.0354 23.8719 33.0354V33.0403Z" fill="#B8943E"/>
<path d="M10.9508 67.9466C10.5874 67.9466 10.2976 67.652 10.2976 67.2935C10.2976 66.935 10.5923 66.6354 10.9508 66.6354H19.4269C19.7903 66.6354 20.085 66.9301 20.085 67.2935C20.085 67.6569 19.7903 67.9466 19.4269 67.9466H10.9508Z" fill="#B8943E"/>
<path d="M24.9673 67.9466C24.6039 67.9466 24.3141 67.652 24.3141 67.2935C24.3141 66.935 24.6088 66.6354 24.9673 66.6354H33.4483C33.8117 66.6354 34.1064 66.9301 34.1064 67.2935C34.1064 67.6569 33.8117 67.9466 33.4483 67.9466H24.9673Z" fill="#B8943E"/>
<path d="M17.0748 62.859C16.7114 62.859 16.4216 62.5643 16.4216 62.2009C16.4216 61.8375 16.7163 61.5478 17.0748 61.5478H25.5558C25.9192 61.5478 26.2139 61.8424 26.2139 62.2009C26.2139 62.5594 25.9192 62.859 25.5558 62.859H17.0748Z" fill="#B8943E"/>
</svg>
