<svg width="70" height="73" viewBox="0 0 70 73" fill="none" xmlns="http://www.w3.org/2000/svg">
<path d="M32.3988 72.8921C32.2132 72.8921 32.0276 72.8677 31.8517 72.814L22.4929 70.1275C22.4539 70.1177 22.4148 70.1031 22.3806 70.0835L15.9818 67.0502C14.6093 66.4006 13.9597 64.8229 14.5018 63.4601C14.9512 62.3318 16.0795 61.5698 17.3153 61.5698C17.5449 61.5698 17.7696 61.5942 17.9943 61.6479L23.5578 62.9423L33.0191 63.9192L34.9778 63.0644L33.2975 62.405C32.4867 62.0875 31.8615 61.4818 31.5293 60.7003C31.2118 59.953 31.2118 59.1275 31.5196 58.3753C31.8419 57.5986 32.4623 56.9881 33.2634 56.6657L43.6284 52.4747C44.3269 52.1914 45.1035 52.0449 45.8704 52.0449C46.3881 52.0449 46.9059 52.1133 47.3992 52.2403L59.2003 54.8291V52.8313C59.2003 52.4308 59.5276 52.1035 59.9281 52.1035H69.2722C69.6727 52.1035 70 52.4308 70 52.8313V70.909C70 71.3095 69.6727 71.6368 69.2722 71.6368H59.9281C59.5276 71.6368 59.2003 71.3095 59.2003 70.909V68.623L50.8721 69.1603L32.7847 72.8482C32.6577 72.8726 32.5258 72.8872 32.3939 72.8872L32.3988 72.8921ZM17.3104 63.0254C16.6706 63.0254 16.0844 63.4161 15.8548 63.9974C15.6008 64.6421 15.9379 65.4237 16.6071 65.7412L22.9521 68.75L32.3793 71.4561L50.6328 67.7341C50.6621 67.7292 50.6963 67.7243 50.7305 67.7194L59.2051 67.1723V56.3238L47.0671 53.6617C46.691 53.5591 46.2758 53.5054 45.8655 53.5054C45.2793 53.5054 44.7127 53.6128 44.1852 53.8278L33.8202 58.0187C33.3806 58.1945 33.0484 58.5218 32.8726 58.937C32.7114 59.3229 32.7114 59.7478 32.8726 60.1337C33.1364 60.7589 33.8007 61.179 34.5187 61.179C34.6506 61.179 34.7776 61.1643 34.9046 61.1399L43.6625 59.3082C43.7163 59.2985 43.7651 59.2936 43.814 59.2936C44.1266 59.2936 44.405 59.5036 44.5027 59.8016C44.615 60.1581 44.4441 60.5391 44.1022 60.6905L33.4294 65.3309C33.3366 65.3699 33.2389 65.3895 33.1412 65.3895C33.1168 65.3895 33.0924 65.3895 33.068 65.3895L23.3673 64.3881C23.3331 64.3881 23.3038 64.3784 23.2696 64.3735L17.667 63.0693C17.5547 63.04 17.4326 63.0302 17.3104 63.0302V63.0254ZM60.6559 70.1861H68.5444V53.5591H60.6559V70.1861Z" fill="#B8943E"/>
<path d="M44.5424 38.7051C43.2773 38.7051 42.0855 37.8796 41.6459 36.6976L39.6432 31.3392L32.5655 24.8281L26.0202 23.2944C25.8492 23.2553 25.6783 23.2358 25.5073 23.2358C24.716 23.2358 24.1934 23.6656 23.954 23.9196C23.4412 24.4667 23.2507 25.2238 23.4461 25.9418L23.4558 25.9858L26.2205 32.785C26.7822 34.2846 26.2351 35.9747 24.9163 36.7855C24.4327 37.0834 23.8808 37.2397 23.3239 37.2397C23.0748 37.2397 22.8257 37.2104 22.5815 37.1469C21.7658 36.9467 21.0721 36.4289 20.6179 35.6962L14.4243 26.9187L14.3901 26.865C14.0921 26.3668 13.8235 25.3361 13.4083 23.6998C13.1689 22.7473 12.8075 21.3161 12.534 20.6421L12.4265 20.3783L10.6241 19.4893L9.5886 21.4187C9.46161 21.6532 9.21738 21.7997 8.94873 21.7997C8.82662 21.7997 8.71427 21.7704 8.60681 21.7118L0.381225 17.2815C0.215151 17.1887 0.0832822 17.0324 0.0295522 16.8517C-0.0241778 16.6709 -0.00464197 16.4658 0.0881643 16.2997L8.66053 0.380995C8.75334 0.210036 8.90476 0.0830379 9.09037 0.0293079C9.15876 0.00976976 9.22714 0 9.3004 0C9.41763 0 9.53975 0.0293074 9.64233 0.0879219L17.8728 4.5182C18.2245 4.7087 18.3564 5.14831 18.1659 5.49999L17.1694 7.35124L21.0917 9.62255L38.212 17.6723C38.5002 17.809 38.7591 18.0142 38.9496 18.2731L46.0029 27.6025C46.2031 27.8663 46.3301 28.1789 46.379 28.5013L47.3803 35.4569C47.6001 36.976 46.589 38.3827 45.0797 38.6612C44.9087 38.6905 44.7329 38.71 44.5521 38.71L44.5424 38.7051ZM25.5073 21.7802C25.7857 21.7802 26.0739 21.8144 26.3523 21.8779L33.0832 23.4556C33.2054 23.4849 33.3177 23.5435 33.4105 23.6265L40.7569 30.3867C40.8399 30.4649 40.9034 30.5626 40.9425 30.6652L43.0086 36.1896C43.2431 36.8148 43.8732 37.2544 44.5375 37.2544C44.6303 37.2544 44.7231 37.2446 44.811 37.23C45.5486 37.0932 46.0419 36.4094 45.9345 35.662L44.9136 28.5795L37.704 19.0448L20.4372 10.9267C20.4372 10.9267 20.403 10.9072 20.3785 10.8974L16.4709 8.63587L11.3128 18.2096L13.2227 19.1523C13.3204 19.2011 13.4034 19.2695 13.4718 19.3526C13.9309 19.9289 14.2875 21.2478 14.815 23.3481C15.1277 24.5839 15.4012 25.6438 15.5966 26.0541L15.621 26.1079L21.8097 34.8707L21.839 34.9147C22.0881 35.3348 22.474 35.6279 22.9283 35.7402C23.0553 35.7695 23.1872 35.789 23.319 35.789C23.6121 35.789 23.9003 35.706 24.1543 35.5497C24.8821 35.1003 25.18 34.1625 24.8674 33.3175L22.0979 26.5084C22.0979 26.5084 22.0832 26.4742 22.0784 26.4596C21.6925 25.1994 21.9953 23.8854 22.8892 22.928C23.5828 22.1905 24.5109 21.7802 25.5024 21.7802H25.5073ZM1.70006 16.3437L8.64586 20.0852L16.5295 5.44626L9.58372 1.70471L1.70006 16.3437Z" fill="#B8943E"/>
<path d="M33.0105 54.4529C32.61 54.4529 32.2827 54.1256 32.2827 53.7251V52.6016H29.6011C29.2006 52.6016 28.8733 52.2744 28.8733 51.8738C28.8733 51.4733 29.2006 51.146 29.6011 51.146H32.2827V48.5377H29.6011C29.2006 48.5377 28.8733 48.2104 28.8733 47.8099C28.8733 47.4094 29.2006 47.0821 29.6011 47.0821H32.2827V42.4174L31.721 42.2708C29.4302 41.6798 27.828 39.6185 27.828 37.2593C27.828 34.4018 30.1531 32.0768 33.0105 32.0768C35.868 32.0768 38.1931 34.4018 38.1931 37.2593C38.1931 39.6234 36.5909 41.6847 34.3001 42.2708L33.7384 42.4174V53.7153C33.7384 54.1158 33.4111 54.4431 33.0105 54.4431V54.4529ZM33.0105 33.5421C30.9541 33.5421 29.2788 35.2175 29.2788 37.2739C29.2788 39.3303 30.9541 41.0057 33.0105 41.0057C35.0669 41.0057 36.7423 39.3303 36.7423 37.2739C36.7423 35.2175 35.0669 33.5421 33.0105 33.5421Z" fill="#B8943E"/>
</svg>
