<svg width="17" height="14" viewBox="0 0 17 14" fill="none" xmlns="http://www.w3.org/2000/svg">
<path d="M8.43575 13.6911C6.32348 13.6911 4.21 13.6959 2.09772 13.6887C0.805619 13.6839 0.0142653 12.9105 0.00946197 11.6148C-0.00254643 8.435 -0.00374727 5.25397 0.00946197 2.07415C0.0142653 0.761632 0.777999 0.00870609 2.09292 0.00630441C6.3631 -0.00210147 10.6333 -0.00210147 14.9023 0.00630441C16.2376 0.00870609 16.9905 0.779645 16.9941 2.13659C17.0025 5.27199 17.0013 8.40858 16.9941 11.544C16.9905 12.9213 16.2184 13.6851 14.841 13.6887C12.7059 13.6947 10.5708 13.6899 8.43575 13.6899V13.6911ZM0.685535 3.4383C0.653112 3.77334 0.615886 3.98349 0.615886 4.19363C0.612284 6.57129 0.60748 8.94896 0.615886 11.3266C0.620689 12.5635 1.05659 13.033 2.30427 13.0378C6.43756 13.0558 10.5708 13.0558 14.7041 13.0378C15.9518 13.0318 16.3745 12.5707 16.3781 11.3182C16.3865 8.94055 16.3829 6.56289 16.3781 4.18523C16.3781 3.97628 16.3349 3.76733 16.2989 3.44071C15.9914 3.61723 15.7837 3.72651 15.5844 3.85259C13.6318 5.08706 11.6732 6.31432 9.73266 7.56559C8.88607 8.11197 8.09231 8.09636 7.25053 7.55478C5.30877 6.30351 3.3514 5.07625 1.39883 3.84179C1.2019 3.7181 0.994151 3.61243 0.685535 3.4371V3.4383ZM8.53062 0.633143C6.50841 0.633143 4.48619 0.628339 2.46278 0.637946C2.13375 0.639147 1.7867 0.65836 1.47929 0.762833C0.944916 0.942959 0.702346 1.38247 0.620689 1.93005C0.545036 2.438 0.832037 2.68658 1.21871 2.93035C3.34419 4.26688 5.46488 5.60942 7.57115 6.97478C8.21 7.38907 8.784 7.39267 9.42164 6.98078C11.5868 5.583 13.7747 4.22125 15.9266 2.80426C16.1608 2.64935 16.3421 2.22666 16.3373 1.93125C16.3241 1.10507 15.7525 0.646352 14.7954 0.640348C12.7059 0.625938 10.6177 0.635545 8.52822 0.634344L8.53062 0.633143Z" fill="#D2AE4D"/>
</svg>
