<svg width="48" height="48" viewBox="0 0 48 48" fill="none" xmlns="http://www.w3.org/2000/svg">
<path d="M28.4676 23.9301C28.3247 23.8301 28.1849 23.757 28.0769 23.649C24.4131 19.9899 20.754 16.3277 17.0886 12.6702C16.7503 12.3319 16.5343 11.9619 16.6073 11.4727C16.7455 10.5373 17.8509 10.1085 18.5957 10.6977C18.7053 10.7851 18.8022 10.8899 18.9022 10.9899C22.8821 14.9682 26.8604 18.9481 30.8403 22.928C31.601 23.6887 31.5978 24.3097 30.8323 25.0752C26.835 29.0725 22.836 33.0683 18.8434 37.0704C18.4956 37.4198 18.1129 37.6406 17.6111 37.5532C16.6963 37.3944 16.285 36.3097 16.8614 35.576C16.9567 35.4553 17.0711 35.3505 17.1807 35.2425C20.8239 31.5993 24.4671 27.9561 28.1087 24.3129C28.2071 24.2144 28.2992 24.1128 28.4692 23.9301H28.4676Z" fill="white"/>
<path d="M44.3139 48H3.68608C1.65326 48 0 46.3467 0 44.3139V3.68608C0 1.65326 1.65326 0 3.68608 0H44.3139C46.3467 0 48 1.65326 48 3.68608V44.3139C48 46.3467 46.3467 48 44.3139 48ZM3.68608 0.13658C1.7279 0.13658 0.13658 1.7279 0.13658 3.68608V44.3139C0.13658 46.2705 1.72949 47.8634 3.68608 47.8634H44.3139C46.2705 47.8634 47.8634 46.2705 47.8634 44.3139V3.68608C47.8634 1.72949 46.2705 0.13658 44.3139 0.13658H3.68608Z" fill="white"/>
</svg>
