<svg width="21" height="24" viewBox="0 0 21 24" fill="none" xmlns="http://www.w3.org/2000/svg">
<path d="M21 9.71812C20.7987 9.73602 20.5974 9.74497 20.3961 9.74497C18.1908 9.74497 16.1229 8.65324 14.915 6.84564V16.7069C14.915 20.7338 11.5752 24 7.45752 24C3.33988 24 0 20.7338 0 16.7069C0 12.6801 3.33988 9.41387 7.45752 9.41387C7.61308 9.41387 7.76863 9.43177 7.91504 9.44072V13.0291C7.75948 13.0112 7.61308 12.9843 7.45752 12.9843C5.35295 12.9843 3.65098 14.6488 3.65098 16.7069C3.65098 18.7651 5.35295 20.4295 7.45752 20.4295C9.56209 20.4295 11.4105 18.8098 11.4105 16.7517L11.4471 0H14.9608C15.2902 3.0783 17.834 5.48546 20.9908 5.71812V9.70917L21 9.71812Z" fill="white"/>
</svg>
