<svg width="48" height="48" viewBox="0 0 48 48" fill="none" xmlns="http://www.w3.org/2000/svg">
<path d="M19.5324 23.9301C19.6753 23.8301 19.8151 23.757 19.9231 23.649C23.5869 19.9899 27.246 16.3277 30.9114 12.6702C31.2497 12.3319 31.4657 11.9619 31.3927 11.4727C31.2545 10.5373 30.1491 10.1085 29.4043 10.6977C29.2947 10.7851 29.1978 10.8899 29.0978 10.9899C25.1179 14.9682 21.1396 18.9481 17.1597 22.928C16.399 23.6887 16.4022 24.3097 17.1677 25.0752C21.165 29.0725 25.164 33.0683 29.1566 37.0704C29.5044 37.4198 29.8871 37.6406 30.3889 37.5532C31.3037 37.3944 31.715 36.3097 31.1386 35.576C31.0433 35.4553 30.9289 35.3505 30.8193 35.2425C27.1761 31.5993 23.5329 27.9561 19.8913 24.3129C19.7929 24.2144 19.7008 24.1128 19.5308 23.9301H19.5324Z" fill="white"/>
<path d="M3.68608 48H44.3139C46.3467 48 48 46.3467 48 44.3139V3.68608C48 1.65326 46.3467 0 44.3139 0H3.68608C1.65326 0 0 1.65326 0 3.68608V44.3139C0 46.3467 1.65326 48 3.68608 48ZM44.3139 0.13658C46.2721 0.13658 47.8634 1.7279 47.8634 3.68608V44.3139C47.8634 46.2705 46.2705 47.8634 44.3139 47.8634H3.68608C1.72948 47.8634 0.136578 46.2705 0.136578 44.3139V3.68608C0.136578 1.72949 1.72948 0.13658 3.68608 0.13658H44.3139Z" fill="white"/>
</svg>
