<svg width="71" height="67" viewBox="0 0 71 67" fill="none" xmlns="http://www.w3.org/2000/svg">
<path d="M5.56205 66.3677C2.49215 66.3677 0 63.8707 0 60.8008V5.56696C0 2.49705 2.49704 0 5.56205 0H41.0202C41.0692 0 41.1181 0.00489652 41.1671 0.0146889C41.1866 0.0195851 41.2111 0.029377 41.2356 0.0391694C41.2895 0.0587541 41.3189 0.0636501 41.3434 0.0734425C41.3434 0.0734425 41.3679 0.0930272 41.4021 0.112612L41.456 0.141989C41.4903 0.16647 41.5196 0.19095 41.549 0.220328L53.0795 11.7508C53.1089 11.7802 53.1333 11.8096 53.1578 11.839C53.1676 11.8585 53.1774 11.8781 53.1872 11.8928C53.2068 11.9271 53.2264 11.9565 53.2411 11.9858L53.2558 12.0397L53.2851 12.1278C53.2949 12.1719 53.2998 12.2209 53.2998 12.2698V27.6389C53.2998 28.0453 52.9718 28.3734 52.5654 28.3734C52.3695 28.3734 52.1835 28.295 52.0464 28.1579C51.9093 28.0208 51.831 27.8348 51.831 27.6389V13.0092H41.03C40.6236 13.0092 40.2956 12.6811 40.2956 12.2747V1.47865H5.57676C3.31962 1.47865 1.48356 3.31471 1.48356 5.57185V60.8106C1.48356 63.0677 3.31962 64.9038 5.57676 64.9038H47.7476C48.8394 64.9038 49.8676 64.4778 50.6412 63.7042C51.4148 62.9306 51.8408 61.9024 51.8408 60.8106V50.9105C51.8408 50.5041 52.1688 50.176 52.5752 50.176C52.9816 50.176 53.3096 50.5041 53.3096 50.9105V60.8106C53.3096 62.299 52.7319 63.6944 51.6792 64.7471C50.6265 65.7998 49.2311 66.3775 47.7427 66.3775H5.57186L5.56205 66.3677ZM41.7546 11.5354H50.7734L41.7546 2.51664V11.5354Z" fill="#B8943E"/>
<path d="M34.8369 57.7406C34.641 57.7406 34.4549 57.6622 34.3178 57.5251C34.1269 57.3342 34.0535 57.0551 34.1318 56.7956L36.3253 49.3583C36.3596 49.2408 36.4232 49.1331 36.5113 49.0449L64.5077 21.0486C64.6448 20.9115 64.8309 20.8332 65.0267 20.8332C65.2226 20.8332 65.4086 20.9115 65.5457 21.0486L70.7846 26.2875C70.9266 26.4246 71 26.6106 71 26.8065C71 27.0023 70.9217 27.1884 70.7846 27.3255L42.7883 55.3218C42.7001 55.41 42.5924 55.4736 42.4749 55.5079L35.0376 57.7014C34.9691 57.721 34.9005 57.7308 34.8271 57.7308L34.8369 57.7406ZM37.6815 49.9605L35.9238 55.9192L41.8825 54.1615L63.9838 32.0601L59.7829 27.8592L37.6815 49.9605ZM60.8258 26.8163L65.0267 31.0172L69.2276 26.8163L65.0267 22.6154L60.8258 26.8163Z" fill="#B8943E"/>
<path d="M57.2813 45.4513C57.0854 45.4513 56.8994 45.373 56.7623 45.2359C56.6203 45.0988 56.5468 44.9127 56.5468 44.7169C56.5468 44.5211 56.6252 44.335 56.7623 44.1979L67.0149 33.9453C67.152 33.8082 67.338 33.7299 67.5339 33.7299C67.7297 33.7299 67.9158 33.8082 68.0528 33.9453C68.1899 34.0824 68.2683 34.2685 68.2683 34.4643C68.2683 34.6601 68.1899 34.8462 68.0528 34.9833L57.8003 45.2359C57.6632 45.373 57.4771 45.4513 57.2813 45.4513Z" fill="#B8943E"/>
<path d="M29.5199 59.8118C28.2909 59.8118 27.674 58.9256 27.2284 58.2793C26.9004 57.8043 26.729 57.5889 26.5038 57.4665L26.1366 57.2658L25.7743 57.4714C25.554 57.5938 25.3826 57.8092 25.0595 58.2842C24.609 58.9305 23.997 59.8167 22.768 59.8167C21.5391 59.8167 20.9222 58.9305 20.4717 58.2842C20.1437 57.8141 19.9723 57.5938 19.752 57.4714L19.3847 57.2706L19.0224 57.4763C18.807 57.5987 18.6357 57.8141 18.3076 58.2793C17.8523 58.9353 17.2403 59.8216 16.0064 59.8216C14.6992 59.8216 14.1899 58.3233 13.6073 56.2082C13.5241 55.9046 13.4359 55.5913 13.3429 55.2779L12.6232 52.8935L11.9083 55.2828C11.8103 55.6108 11.7174 55.9438 11.6439 56.2082C11.0613 58.3233 10.5472 59.8216 9.23988 59.8216C8.83349 59.8216 8.50545 59.4935 8.50545 59.0871C8.50545 58.764 8.72086 58.4702 9.03422 58.3821L9.32803 58.294L9.47979 58.0247C9.72949 57.5742 9.97431 56.7223 10.224 55.8165C10.8067 53.7013 11.3208 52.2031 12.6232 52.2031C13.9255 52.2031 14.4396 53.7013 15.0223 55.8165C15.1692 56.3502 15.365 57.065 15.5658 57.5889L16.0554 58.8521L16.8633 57.7652C16.9416 57.6574 17.0248 57.5399 17.0885 57.4518C17.5389 56.8055 18.1509 55.9193 19.3847 55.9193C20.6186 55.9193 21.2306 56.8055 21.6762 57.4518C22.0042 57.9267 22.1756 58.1422 22.3959 58.2646L22.7631 58.4702L23.1303 58.2646C23.3507 58.1422 23.522 57.9267 23.8452 57.4518C24.2956 56.8055 24.9077 55.9193 26.1366 55.9193C27.3655 55.9193 27.9824 56.8055 28.4329 57.4518C28.7609 57.9267 28.9323 58.1422 29.1527 58.2646L29.324 58.3576H29.5199C29.9263 58.3576 30.2543 58.6856 30.2543 59.092C30.2543 59.4984 29.9263 59.8265 29.5199 59.8265V59.8118Z" fill="#B8943E"/>
<path d="M9.23988 44.7852C8.83349 44.7852 8.50545 44.4572 8.50545 44.0508C8.50545 43.6444 8.83349 43.3164 9.23988 43.3164H29.5199C29.9263 43.3164 30.2543 43.6444 30.2543 44.0508C30.2543 44.4572 29.9263 44.7852 29.5199 44.7852H9.23988Z" fill="#B8943E"/>
<path d="M9.23988 30.9782C8.83349 30.9782 8.50545 30.6501 8.50545 30.2437C8.50545 29.8374 8.83349 29.5093 9.23988 29.5093H43.5768C43.9832 29.5093 44.3112 29.8374 44.3112 30.2437C44.3112 30.6501 43.9832 30.9782 43.5768 30.9782H9.23988Z" fill="#B8943E"/>
<path d="M9.23988 17.166C8.83349 17.166 8.50545 16.8379 8.50545 16.4315C8.50545 16.0252 8.83349 15.6971 9.23988 15.6971H36.1493C36.5556 15.6971 36.8837 16.0252 36.8837 16.4315C36.8837 16.8379 36.5556 17.166 36.1493 17.166H9.23988Z" fill="#B8943E"/>
</svg>
